<?xml version="1.0" standalone="no"?>
<!DOCTYPE svg PUBLIC "-//W3C//DTD SVG 20010904//EN"
 "http://www.w3.org/TR/2001/REC-SVG-20010904/DTD/svg10.dtd">
<svg version="1.0" xmlns="http://www.w3.org/2000/svg"
 width="700.000000pt" height="700.000000pt" viewBox="0 0 700.000000 700.000000"
 preserveAspectRatio="xMidYMid meet">
<metadata>
Created by potrace 1.11, written by Peter Selinger 2001-2013
</metadata>
<g transform="translate(0.000000,700.000000) scale(0.100000,-0.100000)"
fill="#000000" stroke="none">
<path d="M5925 6985 c-86 -23 -308 -84 -360 -100 -47 -14 -386 -108 -450 -125
-62 -16 -375 -102 -633 -174 -594 -166 -998 -278 -1016 -281 -11 -3 -58 -16
-106 -30 -48 -14 -95 -27 -106 -30 -10 -2 -75 -19 -144 -39 -69 -19 -247 -69
-397 -110 -149 -41 -307 -85 -350 -97 -138 -40 -230 -119 -270 -234 -17 -47
-18 -153 -19 -1675 -1 -894 -3 -1629 -3 -1633 -1 -5 -29 -5 -64 -1 -154 17
-328 7 -452 -28 -22 -6 -48 -13 -58 -15 -29 -5 -178 -69 -233 -99 -385 -211
-635 -626 -638 -1059 -1 -171 11 -252 56 -395 90 -282 288 -533 543 -687 127
-76 321 -144 460 -161 93 -11 323 -7 390 7 558 116 959 562 1010 1122 2 24 4
823 4 1775 l1 1731 33 17 c17 9 88 32 157 50 213 58 782 215 835 231 44 13
535 150 575 159 8 3 83 23 165 46 83 23 157 43 165 45 8 2 71 20 140 39 145
41 161 43 184 17 17 -19 18 -77 18 -963 -1 -519 -1 -960 -1 -981 l-1 -39 -62
8 c-141 16 -287 9 -429 -21 -59 -12 -164 -48 -235 -81 -65 -30 -199 -107 -214
-124 -3 -3 -27 -23 -55 -45 -57 -44 -144 -133 -184 -185 -14 -19 -28 -37 -31
-40 -34 -32 -123 -199 -163 -305 -52 -139 -68 -232 -72 -400 -9 -386 154 -733
462 -986 39 -33 74 -59 77 -59 3 0 24 -13 48 -29 85 -57 249 -124 373 -152 28
-6 59 -13 70 -16 11 -2 85 -6 165 -8 227 -6 406 34 596 134 355 186 592 521
660 931 10 64 13 4786 2 4834 -23 103 -95 193 -191 241 -66 32 -174 41 -252
20z"/>
</g>
</svg>
