<svg enable-background="new 0 0 512.002 512.002" version="1.1" viewBox="0 0 512 512" xml:space="preserve" xmlns="http://www.w3.org/2000/svg"><path d="m162.28 98.603v248.19c-9.727-3.439-20.312-5.062-31.361-4.401-40.456 2.418-72.937 35.46-74.661 75.95-1.924 45.157 33.806 82.435 78.392 83.043 44.556 0.607 80.679-36.138 80.679-80.698v-246.24c0-6.722 4.485-12.618 10.963-14.412l157.53-43.634c9.526-2.639 18.947 4.527 18.947 14.412v156.03c-9.725-3.439-20.307-5.061-31.353-4.401-40.454 2.414-72.938 35.448-74.669 75.937-1.931 45.161 33.798 82.446 78.386 83.057 44.558 0.61 80.683-36.135 80.683-80.698v-335.16c0-9.885-9.42-17.051-18.947-14.412l-263.62 73.021c-6.478 1.795-10.963 7.691-10.963 14.413z" fill="#c83737"/><path d="m456.34 5.233c-6.411-4.876-14.538-6.44-22.3-4.289l-263.63 73.022c-11.034 3.057-18.741 13.188-18.741 24.638v234.44c-7.009-1.256-14.162-1.674-21.384-1.242-22.192 1.327-43.071 10.863-58.788 26.852-15.718 15.989-24.895 37.027-25.841 59.238-1.048 24.619 7.672 48.012 24.555 65.871 16.894 17.871 39.727 27.896 64.293 28.231 0.416 5e-3 0.826 8e-3 1.241 8e-3 23.595-1e-3 45.875-9.181 62.853-25.928 17.629-17.39 27.338-40.612 27.338-65.386v-246.24c0-1.946 1.31-3.668 3.185-4.188l157.53-43.633c1.811-0.5 3.151 0.243 3.79 0.73 0.641 0.487 1.715 1.584 1.715 3.458v142.28c-7.007-1.256-14.155-1.672-21.374-1.242-22.191 1.325-43.07 10.857-58.788 26.842-15.719 15.986-24.9 37.021-25.849 59.232-1.051 24.622 7.667 48.017 24.548 65.88 16.894 17.874 39.727 27.902 64.296 28.239 24.065 0.336 46.82-8.876 64.098-25.918 17.63-17.391 27.34-40.613 27.34-65.388v-335.16c-2e-3 -8.055-3.678-15.471-10.089-20.349zm-11.132 355.51c0 19.053-7.466 36.91-21.022 50.282-13.204 13.023-30.538 20.052-48.906 19.807-18.783-0.257-36.244-7.928-49.164-21.597-12.908-13.658-19.574-31.556-18.767-50.397 1.489-34.821 29.909-63.723 64.701-65.799 9.303-0.557 18.454 0.728 27.183 3.813 3.248 1.149 6.851 0.648 9.662-1.34s4.485-5.218 4.485-8.663v-156.03c0-8.054-3.677-15.471-10.088-20.347-6.411-4.877-14.542-6.439-22.3-4.289l-157.53 43.633c-11.034 3.057-18.741 13.188-18.741 24.637v246.24c0 19.052-7.465 36.909-21.021 50.28-13.203 13.023-30.581 20.047-48.904 19.809-18.782-0.256-36.243-7.923-49.162-21.591-12.909-13.656-19.577-31.551-18.775-50.392 1.483-34.823 29.901-63.731 64.696-65.812 1.411-0.084 2.818-0.126 4.221-0.126 7.854 0 15.563 1.321 22.97 3.939 3.248 1.149 6.85 0.648 9.662-1.34 2.813-1.988 4.485-5.218 4.485-8.663v-248.19c0-1.946 1.31-3.669 3.185-4.188l263.63-73.021c1.798-0.502 3.148 0.241 3.789 0.729 0.641 0.487 1.715 1.584 1.715 3.459v335.16h-2e-3z" fill="#231F20"/><path d="m109.24 421.46c3e-3 -0.286 0.011-0.574 0.022-0.862 0.251-5.854-4.289-10.804-10.145-11.055-5.857-0.258-10.804 4.291-11.055 10.145-0.022 0.508-0.035 1.016-0.041 1.522-0.069 5.859 4.625 10.665 10.484 10.734h0.127c5.802 1e-3 10.539-4.668 10.608-10.484z" fill="#231F20"/><path d="m165.06 395.48c3e-3 -0.286 0.011-0.574 0.022-0.862 0.251-5.854-4.289-10.804-10.145-11.055-5.857-0.258-10.804 4.291-11.055 10.145-0.022 0.508-0.035 1.016-0.041 1.522-0.069 5.859 4.625 10.665 10.484 10.734h0.127c5.802 1e-3 10.539-4.668 10.608-10.484z" fill="#231f20"/><path d="m172.89 410.08c-5.86 0-10.61 4.75-10.61 10.61 0 15.25-11.907 27.656-26.477 27.656l-0.43-2e-3c-6.214-0.085-11.986-2.234-16.69-6.215-4.472-3.784-11.167-3.229-14.952 1.245-3.786 4.472-3.227 11.167 1.245 14.952 8.505 7.198 18.916 11.083 30.188 11.237l0.575 3e-3c26.335 0 47.762-21.926 47.762-48.876-2e-3 -5.86-4.752-10.61-10.611-10.61z" fill="#231F20"/><g fill="#231f20"><path d="m349.72 361.52c3e-3 -0.286 0.011-0.574 0.022-0.862 0.251-5.854-4.289-10.804-10.145-11.055-5.857-0.258-10.804 4.291-11.055 10.145-0.022 0.508-0.035 1.016-0.041 1.522-0.069 5.859 4.625 10.665 10.484 10.734h0.127c5.802 1e-3 10.539-4.668 10.608-10.484z"/><path d="m405.55 335.54c3e-3 -0.286 0.011-0.574 0.022-0.862 0.251-5.854-4.289-10.804-10.145-11.055-5.857-0.258-10.804 4.291-11.055 10.145-0.022 0.508-0.035 1.016-0.041 1.522-0.069 5.859 4.625 10.665 10.484 10.734h0.127c5.802 1e-3 10.539-4.668 10.608-10.484z"/><path d="m413.38 350.13c-5.86 0-10.61 4.75-10.61 10.61 0 15.25-11.907 27.656-26.477 27.656l-0.43-2e-3c-6.214-0.085-11.986-2.234-16.69-6.215-4.472-3.784-11.167-3.229-14.952 1.245-3.786 4.472-3.227 11.167 1.245 14.952 8.505 7.198 18.916 11.083 30.188 11.237l0.575 3e-3c26.335 0 47.762-21.926 47.762-48.876-2e-3 -5.86-4.752-10.61-10.611-10.61z"/></g></svg>
